<svg id="icon" xmlns="http://www.w3.org/2000/svg" xmlns:xlink="http://www.w3.org/1999/xlink" viewBox="0,0,256,256" width="50px" height="50px" fill-rule="nonzero"><g fill="#ffffff" fill-rule="nonzero" stroke="none" stroke-width="1" stroke-linecap="butt" stroke-linejoin="miter" stroke-miterlimit="10" stroke-dasharray="" stroke-dashoffset="0" font-family="none" font-weight="none" font-size="none" text-anchor="none" style="mix-blend-mode: normal"><g transform="scale(5.12,5.12)"><path d="M25,2c-12.7,0 -23,10.3 -23,23c0,12.7 10.3,23 23,23c12.7,0 23,-10.3 23,-23c0,-12.7 -10.3,-23 -23,-23zM25,4c11.6,0 21,9.4 21,21c0,11.6 -9.4,21 -21,21c-11.6,0 -21,-9.4 -21,-21c0,-11.6 9.4,-21 21,-21zM26.5,10c-2.7,0 -4.70039,0.90039 -5.90039,2.40039c-1.2,1.5 -1.59961,3.59883 -1.59961,5.79883v1.80078h-2c-0.5,0 -1,0.5 -1,1v5c0,0.5 0.5,1 1,1h2v12c0,0.5 0.5,1 1,1h6c0.5,0 1,-0.5 1,-1v-12h4c0.125,0 0.24414,-0.01875 0.35352,-0.05469c0.32813,-0.10781 0.57148,-0.37109 0.64648,-0.74609l1,-5c0.1,-0.3 0.00078,-0.59883 -0.19922,-0.79883c-0.2,-0.3 -0.50078,-0.40039 -0.80078,-0.40039h-5v-2.19922c0,-0.25 0.00039,-0.37617 0.02539,-0.45117c0.025,-0.075 0.07383,-0.10039 0.17383,-0.15039c0.1,-0.1 0.7,-0.19922 1.5,-0.19922h3.30078c0.5,0 1,-0.5 1,-1v-4c0,-0.4 -0.29922,-0.80039 -0.69922,-0.90039c0,0 -2.90078,-1.09961 -5.80078,-1.09961zM26.59961,11.90039c1.9,0 3.60039,0.49883 4.40039,0.79883v2.30078h-2.30078c-1.1,0 -1.89961,0.09961 -2.59961,0.59961c-0.7,0.4 -1.09961,1.30117 -1.09961,2.20117v3.19922c0,0.5 0.5,1 1,1h4.80078l-0.60156,3h-4.19922c-0.125,0 -0.25,0.03125 -0.36719,0.08594c-0.35156,0.16406 -0.63281,0.53906 -0.63281,0.91406v12h-4v-12c0,-0.125 -0.03125,-0.25 -0.08594,-0.36719c-0.16406,-0.35156 -0.53906,-0.63281 -0.91406,-0.63281h-2v-3h2c0.125,0 0.25,-0.03125 0.36719,-0.08594c0.35156,-0.16406 0.63281,-0.53906 0.63281,-0.91406v-2.80078c0,-0.5 0.02422,-0.96719 0.07422,-1.40625c0.15,-1.31719 0.525,-2.36836 1.125,-3.19336c0.8,-1 2.10039,-1.69922 4.40039,-1.69922z"></path></g></g></svg>